# xmcd CD database file
#
# Track frame offsets:
#	182
#	15017
#	30565
#	45347
#	58195
#	73522
#	90520
#	104610
#	116542
#	129127
#	140757
#	151445
#	163707
#	177922
#	191942
#	205062
#	218827
#	233715
#	246702
#	259362
#	272770
#	285592
#	298025
#	308742
#	320085
#
# Disc length: 4473 seconds
#
# Revision: 1
# Processed by: cddbd v1.4PL0 Copyright (c) Steve Scherf et al.
# Submitted via: CDex 1.50Beta6
#
DISCID=74117719
DTITLE=LIONEL HAMPTON - Volume 2 1936 - 1937
DYEAR=1995
DGENRE=Jazz
TTITLE0=Sweet Sue, just you ( The Benny Goodman Quartet)
TTITLE1=Me Melancholy Baby ( The Benny Goodman Quartet)
TTITLE2=Stompin' at The Savoy ( The Benny Goodman Quartet) 
TTITLE3=Stompin' at The Savoy ( The Benny Goodman Quartet)
TTITLE4=Whispering ( The Benny Goodman Quartet)
TTITLE5=Ida! Sweet as apple cider ( The Benny Goodman Quartet)
TTITLE6=Tea for two ( The Benny Goodman Quartet)
TTITLE7=Runnin' Wild ( The Benny Goodman Quartet)
TTITLE8=My last affair (Lionel Hampton and his Orchestra)
TTITLE9=My Last Affair ( Lionel Hampton and his Orchestra)
TTITLE10=Jivin' The Vibes ( Lionel Hampton and his Orchestra)
TTITLE11=The Mood that i'm in ( Lionel Hampton and his Orchestra)
TTITLE12=Hampton stomp ( Lionel Hampton and his Orchestra)
TTITLE13=Buzzin' Around whith The Bee ( Lionel Hampton and his Orchestra)
TTITLE14=Whoa Babe ( Lionel Hampton and his Orchestra)
TTITLE15=Stompology ( Lionel Hampton and his Orchestra)
TTITLE16=On the sunny side of the street ( Lionel Hampton and his Orchestra)
TTITLE17=Rhythm, Rhythm ( I go Rhythm)  ( Lionel Hampton and his Orchestra)
TTITLE18=China stomp (Chinatown, my Chinatown)  ( Lionel Hampton and his Orchestra)
TTITLE19=I know that you know ( Lionel Hampton and his Orchestra)
TTITLE20=Avalon (The Benny Goodman Quartet)
TTITLE21=Avalon (The Benny Goodman Quartet)
TTITLE22=Handful of keys (The Benny Goodman Quartet)
TTITLE23=Handful of keys (The Benny Goodman Quartet)
TTITLE24=The man I love (The Benny Goodman Quartet)
EXTD=YEAR: 1995
EXTT0=
EXTT1=
EXTT2=
EXTT3=
EXTT4=
EXTT5=
EXTT6=
EXTT7=
EXTT8=
EXTT9=
EXTT10=
EXTT11=
EXTT12=
EXTT13=
EXTT14=
EXTT15=
EXTT16=
EXTT17=
EXTT18=
EXTT19=
EXTT20=
EXTT21=
EXTT22=
EXTT23=
EXTT24=
PLAYORDER=
